<svg width="41" height="40" viewBox="0 0 41 40" fill="none" xmlns="http://www.w3.org/2000/svg">
<mask id="mask0_1_34" style="mask-type:luminance" maskUnits="userSpaceOnUse" x="0" y="0" width="41" height="40">
<path d="M40.0444 0H0V40H40.0444V0Z" fill="white"/>
</mask>
<g mask="url(#mask0_1_34)">
<path fill-rule="evenodd" clip-rule="evenodd" d="M20.0223 1.33325C22.9439 1.33325 25.3449 2.31992 26.9767 3.26492C29.1858 4.54325 30.0334 6.94825 30.0334 9.09492V11.9449C30.6958 12.3665 31.3132 12.7783 31.8604 13.1583L32.8032 13.8232L32.97 13.9432C33.4556 14.2965 33.9394 14.6549 34.4099 15.0299C35.1207 15.5965 35.2441 16.6632 34.6735 17.3749C34.3971 17.7197 33.9949 17.9409 33.5553 17.9896C33.1158 18.0384 32.6747 17.9108 32.3293 17.6349C31.5828 17.0477 30.817 16.4851 30.0334 15.9483V27.3099C30.0334 29.261 29.2575 31.1322 27.8763 32.5118C26.4951 33.8915 24.6219 34.6665 22.6685 34.6665H17.3761C15.4227 34.6665 13.5495 33.8915 12.1683 32.5118C10.7871 31.1322 10.0112 29.261 10.0112 27.3099V15.9483C9.23198 16.4883 8.45945 17.0432 7.71697 17.6349C7.37136 17.9112 6.93004 18.039 6.49009 17.9903C6.05014 17.9415 5.6476 17.7202 5.37103 17.3749C5.09446 17.0297 4.96649 16.5889 5.01531 16.1494C5.06413 15.7099 5.28571 15.3078 5.63131 15.0316C6.10518 14.6583 6.58738 14.2983 7.07459 13.9432L7.78538 13.4349C8.42609 12.9849 9.1836 12.4716 10.0112 11.9465V9.09492C10.0112 6.94659 10.8588 4.54325 13.0679 3.26492C14.6997 2.31992 17.1024 1.33325 20.0223 1.33325ZM26.6964 17.0232C25.6802 18.0383 25.0279 19.2983 25.0279 20.7616V26.3332C25.0279 27.2174 24.6763 28.0651 24.0504 28.6903C23.4247 29.3154 22.5758 29.6665 21.6909 29.6665H18.3537C17.4688 29.6665 16.6199 29.3154 15.9942 28.6903C15.3683 28.0651 15.0167 27.2174 15.0167 26.3332V20.7616C15.0167 19.2983 14.3644 18.0383 13.3482 17.0232V27.3099C13.3482 27.8383 13.4524 28.3615 13.6548 28.8496C13.8572 29.3377 14.1539 29.7812 14.528 30.1549C14.9019 30.5284 15.3459 30.8248 15.8346 31.027C16.3234 31.2292 16.8471 31.3332 17.3761 31.3332H22.6685C23.1975 31.3332 23.7212 31.2292 24.2099 31.027C24.6987 30.8248 25.1427 30.5284 25.5166 30.1549C25.8907 29.7812 26.1874 29.3377 26.3897 28.8496C26.5922 28.3615 26.6964 27.8383 26.6964 27.3099V17.0232ZM20.0223 4.66659C17.8582 4.66659 16.0346 5.39992 14.7414 6.14992C13.8871 6.64159 13.3482 7.70492 13.3482 9.09325V10.0265C13.9505 9.71825 14.5646 9.42825 15.1769 9.16992C16.742 8.51325 18.4438 7.99992 20.0223 7.99992C21.6008 7.99992 23.3026 8.51325 24.8677 9.17159C25.48 9.42992 26.094 9.71992 26.6964 10.0265V9.09325C26.6964 7.70659 26.1575 6.64325 25.3031 6.14825C24.01 5.39992 22.1863 4.66659 20.0223 4.66659Z" fill="black"/>
</g>
</svg>
