<svg width="46" height="46" viewBox="0 0 46 46" fill="none" xmlns="http://www.w3.org/2000/svg">
<mask id="mask0_1_151" style="mask-type:luminance" maskUnits="userSpaceOnUse" x="-1" y="0" width="47" height="46">
<path d="M45.0804 0.144653H-0.0010376V45.1762H45.0804V0.144653Z" fill="white"/>
</mask>
<g mask="url(#mask0_1_151)">
<path fill-rule="evenodd" clip-rule="evenodd" d="M22.5396 1.64575C25.8287 1.64575 28.5317 2.75654 30.3688 3.82041C32.8557 5.25954 33.81 7.96706 33.81 10.3838V13.5922C34.5557 14.0669 35.2507 14.5305 35.8668 14.9583L36.9282 15.7068L37.1159 15.8419C37.6626 16.2397 38.2073 16.6431 38.737 17.0653C39.5372 17.7032 39.6761 18.9041 39.0337 19.7053C38.7225 20.0935 38.2697 20.3425 37.7749 20.3973C37.2801 20.4522 36.7835 20.3085 36.3946 19.998C35.5542 19.3369 34.6921 18.7036 33.81 18.0992V30.89C33.81 33.0865 32.9365 35.1931 31.3815 36.7463C29.8266 38.2995 27.7177 39.172 25.5187 39.172H19.5605C17.3615 39.172 15.2526 38.2995 13.6977 36.7463C12.1428 35.1931 11.2692 33.0865 11.2692 30.89V18.0992C10.392 18.7071 9.52232 19.3319 8.68644 19.998C8.29736 20.3091 7.80052 20.4529 7.30524 20.3981C6.80995 20.3431 6.35677 20.094 6.04541 19.7053C5.73405 19.3167 5.58999 18.8204 5.64495 18.3256C5.69991 17.8309 5.94936 17.3782 6.33844 17.0672C6.87191 16.6469 7.41476 16.2417 7.96325 15.8419L8.76345 15.2696C9.48475 14.763 10.3376 14.1852 11.2692 13.5941V10.3838C11.2692 7.96519 12.2235 5.25954 14.7104 3.82041C16.5475 2.75654 19.2524 1.64575 22.5396 1.64575ZM30.0532 19.3094C28.9092 20.4521 28.1748 21.8706 28.1748 23.518V29.7905C28.1748 30.7858 27.779 31.7402 27.0744 32.444C26.3699 33.1477 25.4144 33.5431 24.418 33.5431H20.6612C19.6649 33.5431 18.7093 33.1477 18.0048 32.444C17.3002 31.7402 16.9044 30.7858 16.9044 29.7905V23.518C16.9044 21.8706 16.17 20.4521 15.026 19.3094V30.89C15.026 31.4849 15.1433 32.0738 15.3711 32.6234C15.599 33.1729 15.9331 33.6722 16.3542 34.0928C16.7751 34.5134 17.275 34.847 17.8251 35.0747C18.3754 35.3023 18.965 35.4194 19.5605 35.4194H25.5187C26.1142 35.4194 26.7038 35.3023 27.2539 35.0747C27.8042 34.847 28.3041 34.5134 28.7251 34.0928C29.1462 33.6722 29.4802 33.1729 29.708 32.6234C29.9359 32.0738 30.0532 31.4849 30.0532 30.89V19.3094ZM22.5396 5.39839C20.1034 5.39839 18.0503 6.22397 16.5944 7.06831C15.6327 7.62183 15.026 8.81891 15.026 10.3819V11.4326C15.7041 11.0855 16.3954 10.759 17.0847 10.4682C18.8466 9.72892 20.7626 9.15102 22.5396 9.15102C24.3166 9.15102 26.2326 9.72892 27.9945 10.4701C28.6838 10.7609 29.375 11.0874 30.0532 11.4326V10.3819C30.0532 8.82079 29.4465 7.62369 28.4847 7.06643C27.0289 6.22397 24.9759 5.39839 22.5396 5.39839Z" fill="white"/>
</g>
</svg>
