<svg width="20" height="21" viewBox="0 0 20 21" fill="none" xmlns="http://www.w3.org/2000/svg">
<g clip-path="url(#clip0_1_165)">
<path d="M14.6667 5.32703H16M6.00002 1.32703H14C15.4145 1.32703 16.7711 1.88893 17.7713 2.88912C18.7714 3.88932 19.3334 5.24587 19.3334 6.66036V14.6604C19.3334 16.0748 18.7714 17.4314 17.7713 18.4316C16.7711 19.4318 15.4145 19.9937 14 19.9937H6.00002C4.58553 19.9937 3.22898 19.4318 2.22878 18.4316C1.22859 17.4314 0.666687 16.0748 0.666687 14.6604V6.66036C0.666687 5.24587 1.22859 3.88932 2.22878 2.88912C3.22898 1.88893 4.58553 1.32703 6.00002 1.32703ZM10 14.6604C8.93915 14.6604 7.92174 14.2389 7.17159 13.4888C6.42145 12.7386 6.00002 11.7212 6.00002 10.6604C6.00002 9.59949 6.42145 8.58208 7.17159 7.83193C7.92174 7.08179 8.93915 6.66036 10 6.66036C11.0609 6.66036 12.0783 7.08179 12.8284 7.83193C13.5786 8.58208 14 9.59949 14 10.6604C14 11.7212 13.5786 12.7386 12.8284 13.4888C12.0783 14.2389 11.0609 14.6604 10 14.6604Z" stroke="white"/>
</g>
<defs>
<clipPath id="clip0_1_165">
<rect width="20" height="20" fill="white" transform="translate(0 0.6604)"/>
</clipPath>
</defs>
</svg>
